<?xml version="1.0" encoding="iso-8859-1"?>
<!-- Generator: Adobe Illustrator 18.0.0, SVG Export Plug-In . SVG Version: 6.00 Build 0)  -->
<!DOCTYPE svg PUBLIC "-//W3C//DTD SVG 1.1//EN" "http://www.w3.org/Graphics/SVG/1.1/DTD/svg11.dtd">
<svg version="1.1" id="Capa_1" xmlns="http://www.w3.org/2000/svg" xmlns:xlink="http://www.w3.org/1999/xlink" x="0px" y="0px"
	 viewBox="0 0 55.32 55.32" style="enable-background:new 0 0 55.32 55.32;" xml:space="preserve">
<g>
	<path style="fill:#ECF0F1;" d="M38.904,25.73c-2.372,0.022-4.749-0.211-7.088-0.657c-2.827-0.538-4.996-0.721-4.996-0.721
		c10.912-2.748,11.584-11.305,11.584-11.305c1.051-0.566,2.226-0.837,3.392-0.933l0.004-0.044c0,0-15.908-18.108-40.799,2.552
		c-0.7,0.581-0.287,1.728,0.623,1.728h7.006c0,0-9.541,4.637-8.56,17.12l7.49-7.49c0,0,0.892,23.183,14.98,24.61
		c0,0-3.834-3.656-3.21-14.98c0,0,6.152,7.579,10.7,8.56c0,0-3.21-5.885,0-11.77C30.031,32.401,35.169,27.781,38.904,25.73z"/>
	<path style="fill:#F0C419;" d="M44.142,25.234c4.387-0.833,9.081-0.829,9.859,4.117c0,0,5.365-11.828-5.547-16.303
		c0,0-5.966-2.198-10.049,0c0,0-0.672,8.557-11.584,11.305c0,0,2.169,0.182,4.996,0.721C35.885,25.848,40.072,26.007,44.142,25.234z
		"/>
	<circle style="fill:#A5A5A4;" cx="28.222" cy="14.431" r="4.92"/>
	<path style="fill:#FFDA71;" d="M42.142,18.351c-0.256,0-0.512-0.098-0.707-0.293c-0.391-0.391-0.391-1.023,0-1.414l2-2
		c0.391-0.391,1.023-0.391,1.414,0s0.391,1.023,0,1.414l-2,2C42.653,18.253,42.397,18.351,42.142,18.351z"/>
	<circle style="fill:#F5EFCA;" cx="28.222" cy="14.431" r="3.92"/>
	<circle style="fill:#2C2F38;" cx="28.92" cy="14.431" r="1.92"/>
</g>
<g>
</g>
<g>
</g>
<g>
</g>
<g>
</g>
<g>
</g>
<g>
</g>
<g>
</g>
<g>
</g>
<g>
</g>
<g>
</g>
<g>
</g>
<g>
</g>
<g>
</g>
<g>
</g>
<g>
</g>
</svg>
